<svg xmlns="http://www.w3.org/2000/svg" xmlns:xlink="http://www.w3.org/1999/xlink" width="500" zoomAndPan="magnify" viewBox="0 0 375 374.999991" height="500" preserveAspectRatio="xMidYMid meet" version="1.2"><defs><filter x="0%" y="0%" width="100%" filterUnits="objectBoundingBox" id="5d2377abde" height="100%"><feColorMatrix values="0 0 0 0 1 0 0 0 0 1 0 0 0 0 1 0 0 0 1 0" type="matrix" in="SourceGraphic"/></filter><clipPath id="65607e0c12"><path d="M 0.0390625 0.878906 L 331 0.878906 L 331 282.160156 L 0.0390625 282.160156 Z M 0.0390625 0.878906 "/></clipPath><clipPath id="747aed3479"><rect x="0" width="332" y="0" height="283"/></clipPath><clipPath id="3a0063d133"><path d="M 25.101562 129.121094 L 349.953125 129.121094 L 349.953125 244.9375 L 25.101562 244.9375 Z M 25.101562 129.121094 "/></clipPath><clipPath id="64a70ab107"><path d="M 61.726562 172.3125 C 79.574219 176.738281 92.398438 180.1875 100.800781 177.335938 C 109.425781 174.488281 115.199219 163.914062 123.226562 157.761719 C 131.476562 151.460938 140.550781 144.789062 149.851562 140.136719 C 159 135.636719 168.601562 131.886719 178.5 130.238281 C 188.625 128.585938 199.648438 129.113281 209.925781 130.386719 C 220.125 131.738281 230.773438 133.386719 239.773438 138.113281 C 249 142.914062 257.476562 151.6875 264.375 159.414062 C 270.75 166.613281 272.699219 179.289062 280.199219 182.585938 C 288.148438 186.113281 302.625 178.3125 311.324219 178.386719 C 317.625 178.386719 322.949219 179.289062 327.523438 180.863281 C 331.199219 182.0625 334.125 183.710938 336.898438 185.886719 C 339.675781 187.988281 342.226562 190.6875 344.175781 193.613281 C 346.125 196.539062 347.625 199.914062 348.523438 203.289062 C 349.5 206.664062 349.875 210.335938 349.648438 213.863281 C 349.425781 217.3125 348.601562 220.988281 347.324219 224.210938 C 345.976562 227.4375 344.023438 230.664062 341.773438 233.289062 C 339.523438 235.914062 336.675781 238.3125 333.675781 240.113281 C 330.601562 241.914062 327.148438 243.261719 323.773438 244.011719 C 320.324219 244.761719 316.574219 244.914062 313.125 244.539062 C 309.675781 244.085938 306.074219 243.113281 302.925781 241.613281 C 299.773438 240.113281 296.699219 238.011719 294.148438 235.613281 C 291.601562 233.210938 289.425781 230.210938 287.773438 227.136719 C 286.125 223.988281 285 220.460938 284.398438 217.011719 C 283.875 213.5625 283.875 209.8125 284.476562 206.363281 C 285.074219 202.988281 286.273438 199.460938 287.925781 196.3125 C 289.574219 193.238281 291.898438 190.3125 294.449219 187.914062 C 297 185.511719 300.074219 183.488281 303.226562 181.988281 C 306.449219 180.5625 310.050781 179.585938 313.5 179.210938 C 316.949219 178.835938 320.699219 179.0625 324.074219 179.886719 C 327.523438 180.636719 330.976562 182.0625 333.976562 183.863281 C 336.976562 185.664062 339.75 188.0625 342 190.761719 C 344.25 193.460938 346.199219 196.6875 347.476562 199.914062 C 348.75 203.136719 349.5 206.8125 349.648438 210.261719 C 349.800781 213.789062 349.425781 217.460938 348.449219 220.835938 C 347.476562 224.210938 345.898438 227.585938 343.949219 230.4375 C 342 233.363281 339.375 236.0625 336.601562 238.164062 C 333.824219 240.261719 330.523438 241.988281 327.148438 243.039062 C 323.851562 244.164062 321.449219 244.613281 316.648438 244.761719 C 306.300781 245.0625 281.324219 243.1875 267.449219 240.039062 C 256.800781 237.5625 247.199219 235.460938 240 229.6875 C 232.875 224.0625 231.074219 212.289062 224.324219 206.136719 C 217.5 199.914062 208.125 194.210938 199.273438 192.488281 C 190.425781 190.761719 179.773438 192.5625 171.074219 195.710938 C 162.375 198.863281 155.023438 205.539062 147.226562 211.386719 C 138.976562 217.613281 132.675781 228.039062 122.851562 232.164062 C 111.976562 236.664062 95.851562 236.210938 83.925781 235.539062 C 73.726562 234.863281 63.675781 231.863281 55.574219 229.460938 C 49.125 227.585938 42.675781 225.335938 38.773438 223.164062 C 36.375 221.8125 35.023438 220.539062 33.449219 218.960938 C 31.875 217.386719 30.449219 215.585938 29.25 213.636719 C 28.125 211.6875 27.148438 209.585938 26.476562 207.488281 C 25.800781 205.3125 25.425781 203.0625 25.273438 200.8125 C 25.125 198.5625 25.273438 196.238281 25.726562 194.0625 C 26.101562 191.8125 26.773438 189.636719 27.75 187.539062 C 28.648438 185.511719 29.851562 183.5625 31.199219 181.761719 C 32.625 180.039062 34.273438 178.386719 36 176.960938 C 37.800781 175.613281 39.75 174.414062 41.851562 173.511719 C 43.875 172.613281 46.050781 171.863281 48.300781 171.488281 C 50.476562 171.113281 52.800781 170.960938 55.050781 171.113281 C 57.300781 171.1875 61.726562 172.3125 61.726562 172.3125 "/></clipPath><clipPath id="4ae4653d1e"><path d="M 159.984375 127.238281 L 215.015625 127.238281 L 215.015625 203.335938 L 159.984375 203.335938 Z M 159.984375 127.238281 "/></clipPath><clipPath id="f9683ba877"><path d="M 165.984375 127.238281 L 209.015625 127.238281 C 210.605469 127.238281 212.132812 127.871094 213.257812 128.996094 C 214.382812 130.121094 215.015625 131.644531 215.015625 133.238281 L 215.015625 197.167969 C 215.015625 198.757812 214.382812 200.285156 213.257812 201.410156 C 212.132812 202.535156 210.605469 203.167969 209.015625 203.167969 L 165.984375 203.167969 C 164.394531 203.167969 162.867188 202.535156 161.742188 201.410156 C 160.617188 200.285156 159.984375 198.757812 159.984375 197.167969 L 159.984375 133.238281 C 159.984375 131.644531 160.617188 130.121094 161.742188 128.996094 C 162.867188 127.871094 164.394531 127.238281 165.984375 127.238281 Z M 165.984375 127.238281 "/></clipPath></defs><g id="3bacaf4b27"><rect x="0" width="375" y="0" height="374.999991" style="fill:#ffffff;fill-opacity:1;stroke:none;"/><rect x="0" width="375" y="0" height="374.999991" style="fill:#f7f5f3;fill-opacity:1;stroke:none;"/><g mask="url(#2e211c570f)" transform="matrix(1,0,0,1,17,44)"><g clip-path="url(#747aed3479)"><g clip-rule="nonzero" clip-path="url(#65607e0c12)"><path style=" stroke:none;fill-rule:nonzero;fill:#e89556;fill-opacity:1;" d="M 6.703125 141.390625 C 13.347656 119.152344 25.785156 98.953125 49.738281 84.878906 C 87.558594 62.660156 116.390625 68.820312 133.125 64.324219 C 190.566406 48.902344 200.777344 7.765625 259.921875 1.535156 C 274.863281 -0.0351562 290.472656 1.371094 303.878906 8.148438 C 317.285156 14.929688 328.179688 27.628906 330.371094 42.492188 C 334.402344 69.921875 309.753906 93.316406 305.367188 120.691406 C 302.34375 139.554688 309.1875 158.386719 314.09375 176.851562 C 318.988281 195.316406 321.648438 216.300781 311.425781 232.433594 C 300.660156 249.417969 278.738281 255.734375 258.628906 256.117188 C 238.523438 256.5 218.398438 252.355469 198.394531 254.445312 C 158.0625 258.664062 134.015625 286.945312 93.863281 281.300781 C 61.550781 276.757812 33.667969 269.800781 13.15625 233.824219 C -3.015625 205.472656 -1.339844 168.304688 6.703125 141.390625 Z M 6.703125 141.390625 "/></g></g><mask id="2e211c570f"><g filter="url(#5d2377abde)"><rect x="0" width="375" y="0" height="374.999991" style="fill:#000000;fill-opacity:0.33;stroke:none;"/></g></mask></g><g clip-rule="nonzero" clip-path="url(#3a0063d133)"><g clip-rule="nonzero" clip-path="url(#64a70ab107)"><path style=" stroke:none;fill-rule:nonzero;fill:#dba1bb;fill-opacity:1;" d="M 22.273438 127.238281 L 352.777344 127.238281 L 352.777344 247.761719 L 22.273438 247.761719 Z M 22.273438 127.238281 "/></g></g><g clip-rule="nonzero" clip-path="url(#4ae4653d1e)"><g clip-rule="nonzero" clip-path="url(#f9683ba877)"><path style=" stroke:none;fill-rule:nonzero;fill:#b67090;fill-opacity:1;" d="M 159.984375 127.238281 L 215.015625 127.238281 L 215.015625 203.121094 L 159.984375 203.121094 Z M 159.984375 127.238281 "/></g></g></g></svg>